<mxfile host="app.diagrams.net" modified="2023-03-21T04:30:30.083Z" agent="5.0 (Macintosh; Intel Mac OS X 10_15_7) AppleWebKit/537.36 (KHTML, like Gecko) Chrome/111.0.0.0 Safari/537.36" etag="IuNsFX9ZK7I7DYRaMnH0" version="21.0.8" type="github">
  <diagram id="zFlVRU_5h1scILDpNqvU" name="Page-1">
    <mxGraphModel dx="1530" dy="944" grid="0" gridSize="10" guides="1" tooltips="1" connect="1" arrows="1" fold="1" page="1" pageScale="1" pageWidth="1654" pageHeight="1169" background="#FFFFFF" math="0" shadow="0">
      <root>
        <mxCell id="0" />
        <mxCell id="1" parent="0" />
        <mxCell id="R_5mfNXVNogWBlwIBrNZ-6" value="" style="edgeStyle=orthogonalEdgeStyle;rounded=0;orthogonalLoop=1;jettySize=auto;html=1;" edge="1" parent="1" source="fAfMOuDEGAaXCi6AJNAk-10" target="R_5mfNXVNogWBlwIBrNZ-4">
          <mxGeometry relative="1" as="geometry" />
        </mxCell>
        <mxCell id="fAfMOuDEGAaXCi6AJNAk-10" value="" style="shape=cube;whiteSpace=wrap;html=1;boundedLbl=1;backgroundOutline=1;darkOpacity=0.05;darkOpacity2=0.1;size=100;perimeterSpacing=0;fillColor=#bac8d3;strokeColor=#23445d;" parent="1" vertex="1">
          <mxGeometry x="82" y="659" width="120" height="400" as="geometry" />
        </mxCell>
        <mxCell id="fAfMOuDEGAaXCi6AJNAk-21" value="" style="shape=cube;whiteSpace=wrap;html=1;boundedLbl=1;backgroundOutline=1;darkOpacity=0.05;darkOpacity2=0.1;strokeColor=#b46504;fillColor=#fad7ac;size=40;" parent="1" vertex="1">
          <mxGeometry x="435" y="51" width="110" height="240" as="geometry" />
        </mxCell>
        <mxCell id="fAfMOuDEGAaXCi6AJNAk-27" value="Input image" style="text;html=1;strokeColor=none;fillColor=none;align=center;verticalAlign=middle;whiteSpace=wrap;rounded=0;fontStyle=1" parent="1" vertex="1">
          <mxGeometry x="56" y="629" width="80" height="30" as="geometry" />
        </mxCell>
        <mxCell id="fAfMOuDEGAaXCi6AJNAk-28" value="192" style="text;html=1;strokeColor=none;fillColor=none;align=center;verticalAlign=middle;whiteSpace=wrap;rounded=0;fontStyle=1" parent="1" vertex="1">
          <mxGeometry x="487" y="291" width="40" height="30" as="geometry" />
        </mxCell>
        <mxCell id="fAfMOuDEGAaXCi6AJNAk-29" value="" style="shape=cube;whiteSpace=wrap;html=1;boundedLbl=1;backgroundOutline=1;darkOpacity=0.05;darkOpacity2=0.1;strokeColor=#b46504;fillColor=#fad7ac;size=40;" parent="1" vertex="1">
          <mxGeometry x="599" y="91" width="126" height="160" as="geometry" />
        </mxCell>
        <mxCell id="fAfMOuDEGAaXCi6AJNAk-33" value="56" style="text;html=1;strokeColor=none;fillColor=none;align=center;verticalAlign=middle;whiteSpace=wrap;rounded=0;fontStyle=1" parent="1" vertex="1">
          <mxGeometry x="565" y="131.5" width="40" height="30" as="geometry" />
        </mxCell>
        <mxCell id="fAfMOuDEGAaXCi6AJNAk-34" value="56" style="text;html=1;strokeColor=none;fillColor=none;align=center;verticalAlign=middle;whiteSpace=wrap;rounded=0;fontStyle=1" parent="1" vertex="1">
          <mxGeometry x="591" y="231" width="40" height="15" as="geometry" />
        </mxCell>
        <mxCell id="R_5mfNXVNogWBlwIBrNZ-43" value="" style="edgeStyle=orthogonalEdgeStyle;rounded=0;orthogonalLoop=1;jettySize=auto;html=1;" edge="1" parent="1" target="R_5mfNXVNogWBlwIBrNZ-40">
          <mxGeometry relative="1" as="geometry">
            <mxPoint x="684" y="859" as="sourcePoint" />
          </mxGeometry>
        </mxCell>
        <mxCell id="fAfMOuDEGAaXCi6AJNAk-39" value="256" style="text;html=1;strokeColor=none;fillColor=none;align=center;verticalAlign=middle;whiteSpace=wrap;rounded=0;fontStyle=1" parent="1" vertex="1">
          <mxGeometry x="663" y="245" width="40" height="30" as="geometry" />
        </mxCell>
        <mxCell id="fAfMOuDEGAaXCi6AJNAk-40" value="512" style="text;html=1;strokeColor=none;fillColor=none;align=center;verticalAlign=middle;whiteSpace=wrap;rounded=0;fontStyle=1" parent="1" vertex="1">
          <mxGeometry x="835" y="227.5" width="40" height="30" as="geometry" />
        </mxCell>
        <mxCell id="fAfMOuDEGAaXCi6AJNAk-41" value="" style="shape=cube;whiteSpace=wrap;html=1;boundedLbl=1;backgroundOutline=1;darkOpacity=0.05;darkOpacity2=0.1;strokeColor=#C73500;fillColor=#fa6800;fontColor=#000000;size=8;" parent="1" vertex="1">
          <mxGeometry x="904" y="105" width="85" height="26.5" as="geometry" />
        </mxCell>
        <mxCell id="fAfMOuDEGAaXCi6AJNAk-42" value="3" style="text;html=1;strokeColor=none;fillColor=none;align=center;verticalAlign=middle;whiteSpace=wrap;rounded=0;fontStyle=1" parent="1" vertex="1">
          <mxGeometry x="780" y="176" width="40" height="30" as="geometry" />
        </mxCell>
        <mxCell id="fAfMOuDEGAaXCi6AJNAk-43" value="3" style="text;html=1;strokeColor=none;fillColor=none;align=center;verticalAlign=middle;whiteSpace=wrap;rounded=0;fontStyle=1" parent="1" vertex="1">
          <mxGeometry x="772" y="156" width="40" height="30" as="geometry" />
        </mxCell>
        <mxCell id="fAfMOuDEGAaXCi6AJNAk-47" value="28" style="text;html=1;strokeColor=none;fillColor=none;align=center;verticalAlign=middle;whiteSpace=wrap;rounded=0;fontStyle=1" parent="1" vertex="1">
          <mxGeometry x="735" y="136" width="40" height="30" as="geometry" />
        </mxCell>
        <mxCell id="fAfMOuDEGAaXCi6AJNAk-49" value="28" style="text;html=1;strokeColor=none;fillColor=none;align=center;verticalAlign=middle;whiteSpace=wrap;rounded=0;fontStyle=1" parent="1" vertex="1">
          <mxGeometry x="760" y="205" width="40" height="30" as="geometry" />
        </mxCell>
        <mxCell id="fAfMOuDEGAaXCi6AJNAk-51" value="" style="shape=cube;whiteSpace=wrap;html=1;boundedLbl=1;backgroundOutline=1;darkOpacity=0.05;darkOpacity2=0.1;strokeColor=#b46504;fillColor=#fad7ac;size=30;" parent="1" vertex="1">
          <mxGeometry x="945" y="127.38" width="150" height="93.62" as="geometry" />
        </mxCell>
        <mxCell id="fAfMOuDEGAaXCi6AJNAk-52" value="1024" style="text;html=1;strokeColor=none;fillColor=none;align=center;verticalAlign=middle;whiteSpace=wrap;rounded=0;fontStyle=1" parent="1" vertex="1">
          <mxGeometry x="1005.75" y="215" width="40" height="30" as="geometry" />
        </mxCell>
        <mxCell id="fAfMOuDEGAaXCi6AJNAk-53" value="14" style="text;html=1;strokeColor=none;fillColor=none;align=center;verticalAlign=middle;whiteSpace=wrap;rounded=0;fontStyle=1" parent="1" vertex="1">
          <mxGeometry x="915" y="136" width="40" height="30" as="geometry" />
        </mxCell>
        <mxCell id="fAfMOuDEGAaXCi6AJNAk-54" value="14" style="text;html=1;strokeColor=none;fillColor=none;align=center;verticalAlign=middle;whiteSpace=wrap;rounded=0;fontStyle=1" parent="1" vertex="1">
          <mxGeometry x="932" y="197.5" width="40" height="30" as="geometry" />
        </mxCell>
        <mxCell id="fAfMOuDEGAaXCi6AJNAk-55" value="" style="shape=cube;whiteSpace=wrap;html=1;boundedLbl=1;backgroundOutline=1;darkOpacity=0.05;darkOpacity2=0.1;strokeColor=#C73500;fillColor=#fa6800;fontColor=#000000;size=8;" parent="1" vertex="1">
          <mxGeometry x="966.5" y="161" width="118.5" height="26.5" as="geometry" />
        </mxCell>
        <mxCell id="fAfMOuDEGAaXCi6AJNAk-56" value="3" style="text;html=1;strokeColor=none;fillColor=none;align=center;verticalAlign=middle;whiteSpace=wrap;rounded=0;fontStyle=1" parent="1" vertex="1">
          <mxGeometry x="949" y="177" width="40" height="30" as="geometry" />
        </mxCell>
        <mxCell id="fAfMOuDEGAaXCi6AJNAk-57" value="3" style="text;html=1;strokeColor=none;fillColor=none;align=center;verticalAlign=middle;whiteSpace=wrap;rounded=0;fontStyle=1" parent="1" vertex="1">
          <mxGeometry x="945" y="156" width="31" height="30" as="geometry" />
        </mxCell>
        <mxCell id="fAfMOuDEGAaXCi6AJNAk-59" value="" style="shape=cube;whiteSpace=wrap;html=1;boundedLbl=1;backgroundOutline=1;darkOpacity=0.05;darkOpacity2=0.1;strokeColor=#b46504;fillColor=#fad7ac;size=20;" parent="1" vertex="1">
          <mxGeometry x="1125" y="139" width="140" height="60" as="geometry" />
        </mxCell>
        <mxCell id="fAfMOuDEGAaXCi6AJNAk-60" value="" style="shape=cube;whiteSpace=wrap;html=1;boundedLbl=1;backgroundOutline=1;darkOpacity=0.05;darkOpacity2=0.1;strokeColor=#C73500;fillColor=#fa6800;fontColor=#000000;size=8;" parent="1" vertex="1">
          <mxGeometry x="1136.75" y="161" width="118.5" height="26.5" as="geometry" />
        </mxCell>
        <mxCell id="fAfMOuDEGAaXCi6AJNAk-61" value="7" style="text;html=1;strokeColor=none;fillColor=none;align=center;verticalAlign=middle;whiteSpace=wrap;rounded=0;fontStyle=1" parent="1" vertex="1">
          <mxGeometry x="1096.75" y="147" width="40" height="30" as="geometry" />
        </mxCell>
        <mxCell id="fAfMOuDEGAaXCi6AJNAk-63" value="7" style="text;html=1;strokeColor=none;fillColor=none;align=center;verticalAlign=middle;whiteSpace=wrap;rounded=0;fontStyle=1" parent="1" vertex="1">
          <mxGeometry x="1109" y="183.5" width="40" height="30" as="geometry" />
        </mxCell>
        <mxCell id="fAfMOuDEGAaXCi6AJNAk-64" value="3" style="text;html=1;strokeColor=none;fillColor=none;align=center;verticalAlign=middle;whiteSpace=wrap;rounded=0;fontStyle=1" parent="1" vertex="1">
          <mxGeometry x="1120" y="155.5" width="26" height="26.5" as="geometry" />
        </mxCell>
        <mxCell id="fAfMOuDEGAaXCi6AJNAk-65" value="3" style="text;html=1;strokeColor=none;fillColor=none;align=center;verticalAlign=middle;whiteSpace=wrap;rounded=0;fontStyle=1" parent="1" vertex="1">
          <mxGeometry x="1120" y="173" width="40" height="30" as="geometry" />
        </mxCell>
        <mxCell id="fAfMOuDEGAaXCi6AJNAk-66" value="1024" style="text;html=1;strokeColor=none;fillColor=none;align=center;verticalAlign=middle;whiteSpace=wrap;rounded=0;fontStyle=1" parent="1" vertex="1">
          <mxGeometry x="1180" y="199" width="40" height="30" as="geometry" />
        </mxCell>
        <mxCell id="fAfMOuDEGAaXCi6AJNAk-79" value="" style="shape=cube;whiteSpace=wrap;html=1;boundedLbl=1;backgroundOutline=1;darkOpacity=0.05;darkOpacity2=0.1;strokeColor=#b46504;fillColor=#fad7ac;size=20;" parent="1" vertex="1">
          <mxGeometry x="1295" y="139" width="140" height="60" as="geometry" />
        </mxCell>
        <mxCell id="fAfMOuDEGAaXCi6AJNAk-81" value="7" style="text;html=1;strokeColor=none;fillColor=none;align=center;verticalAlign=middle;whiteSpace=wrap;rounded=0;fontStyle=1" parent="1" vertex="1">
          <mxGeometry x="1279" y="183.5" width="40" height="30" as="geometry" />
        </mxCell>
        <mxCell id="fAfMOuDEGAaXCi6AJNAk-84" value="1024" style="text;html=1;strokeColor=none;fillColor=none;align=center;verticalAlign=middle;whiteSpace=wrap;rounded=0;fontStyle=1" parent="1" vertex="1">
          <mxGeometry x="1350" y="199" width="40" height="30" as="geometry" />
        </mxCell>
        <mxCell id="fAfMOuDEGAaXCi6AJNAk-85" value="7" style="text;html=1;strokeColor=none;fillColor=none;align=center;verticalAlign=middle;whiteSpace=wrap;rounded=0;fontStyle=1" parent="1" vertex="1">
          <mxGeometry x="1269" y="149" width="40" height="30" as="geometry" />
        </mxCell>
        <mxCell id="fAfMOuDEGAaXCi6AJNAk-86" value="" style="rounded=0;whiteSpace=wrap;html=1;strokeColor=#b46504;fillColor=#fad7ac;rotation=90;" parent="1" vertex="1">
          <mxGeometry x="1462.5" y="162" width="55" height="20" as="geometry" />
        </mxCell>
        <mxCell id="fAfMOuDEGAaXCi6AJNAk-87" value="4096" style="text;html=1;strokeColor=none;fillColor=none;align=center;verticalAlign=middle;whiteSpace=wrap;rounded=0;fontStyle=1" parent="1" vertex="1">
          <mxGeometry x="1470" y="197.5" width="40" height="30" as="geometry" />
        </mxCell>
        <mxCell id="fAfMOuDEGAaXCi6AJNAk-88" value="" style="endArrow=classic;html=1;" parent="1" edge="1">
          <mxGeometry width="50" height="50" relative="1" as="geometry">
            <mxPoint x="1444" y="190.25" as="sourcePoint" />
            <mxPoint x="1474" y="162" as="targetPoint" />
          </mxGeometry>
        </mxCell>
        <mxCell id="fAfMOuDEGAaXCi6AJNAk-90" value="" style="endArrow=classic;html=1;" parent="1" edge="1">
          <mxGeometry width="50" height="50" relative="1" as="geometry">
            <mxPoint x="1444" y="161.75" as="sourcePoint" />
            <mxPoint x="1474" y="193.5" as="targetPoint" />
          </mxGeometry>
        </mxCell>
        <mxCell id="fAfMOuDEGAaXCi6AJNAk-91" value="" style="shape=cube;whiteSpace=wrap;html=1;boundedLbl=1;backgroundOutline=1;darkOpacity=0.05;darkOpacity2=0.1;strokeColor=#b46504;fillColor=#fad7ac;size=20;" parent="1" vertex="1">
          <mxGeometry x="1560" y="142" width="55" height="60" as="geometry" />
        </mxCell>
        <mxCell id="fAfMOuDEGAaXCi6AJNAk-92" value="30" style="text;html=1;strokeColor=none;fillColor=none;align=center;verticalAlign=middle;whiteSpace=wrap;rounded=0;fontStyle=1" parent="1" vertex="1">
          <mxGeometry x="1578" y="198" width="40" height="30" as="geometry" />
        </mxCell>
        <mxCell id="fAfMOuDEGAaXCi6AJNAk-93" value="7" style="text;html=1;strokeColor=none;fillColor=none;align=center;verticalAlign=middle;whiteSpace=wrap;rounded=0;fontStyle=1" parent="1" vertex="1">
          <mxGeometry x="1544" y="181.5" width="40" height="30" as="geometry" />
        </mxCell>
        <mxCell id="fAfMOuDEGAaXCi6AJNAk-94" value="7" style="text;html=1;strokeColor=none;fillColor=none;align=center;verticalAlign=middle;whiteSpace=wrap;rounded=0;fontStyle=1" parent="1" vertex="1">
          <mxGeometry x="1534" y="147" width="40" height="30" as="geometry" />
        </mxCell>
        <mxCell id="fAfMOuDEGAaXCi6AJNAk-106" value="" style="endArrow=classic;html=1;" parent="1" edge="1">
          <mxGeometry width="50" height="50" relative="1" as="geometry">
            <mxPoint x="1510" y="161.5" as="sourcePoint" />
            <mxPoint x="1540" y="193.25" as="targetPoint" />
          </mxGeometry>
        </mxCell>
        <mxCell id="fAfMOuDEGAaXCi6AJNAk-107" value="" style="endArrow=classic;html=1;" parent="1" edge="1">
          <mxGeometry width="50" height="50" relative="1" as="geometry">
            <mxPoint x="1510" y="190.25" as="sourcePoint" />
            <mxPoint x="1540" y="162" as="targetPoint" />
          </mxGeometry>
        </mxCell>
        <mxCell id="R_5mfNXVNogWBlwIBrNZ-16" value="" style="edgeStyle=orthogonalEdgeStyle;rounded=0;orthogonalLoop=1;jettySize=auto;html=1;" edge="1" parent="1" source="R_5mfNXVNogWBlwIBrNZ-4" target="R_5mfNXVNogWBlwIBrNZ-15">
          <mxGeometry relative="1" as="geometry" />
        </mxCell>
        <mxCell id="R_5mfNXVNogWBlwIBrNZ-4" value="" style="shape=cube;whiteSpace=wrap;html=1;boundedLbl=1;backgroundOutline=1;darkOpacity=0.05;darkOpacity2=0.1;strokeColor=#b46504;fillColor=#fad7ac;size=40;" vertex="1" parent="1">
          <mxGeometry x="239" y="739" width="110" height="240" as="geometry" />
        </mxCell>
        <mxCell id="R_5mfNXVNogWBlwIBrNZ-5" value="ConvBNSILU" style="text;html=1;strokeColor=none;fillColor=none;align=center;verticalAlign=middle;whiteSpace=wrap;rounded=0;fontStyle=1" vertex="1" parent="1">
          <mxGeometry x="220" y="709" width="107" height="30" as="geometry" />
        </mxCell>
        <mxCell id="R_5mfNXVNogWBlwIBrNZ-12" value="C3 Block" style="text;html=1;strokeColor=none;fillColor=none;align=center;verticalAlign=middle;whiteSpace=wrap;rounded=0;fontStyle=1" vertex="1" parent="1">
          <mxGeometry x="536" y="764" width="107" height="30" as="geometry" />
        </mxCell>
        <mxCell id="R_5mfNXVNogWBlwIBrNZ-85" value="" style="edgeStyle=orthogonalEdgeStyle;rounded=0;orthogonalLoop=1;jettySize=auto;html=1;" edge="1" parent="1" source="R_5mfNXVNogWBlwIBrNZ-15" target="R_5mfNXVNogWBlwIBrNZ-84">
          <mxGeometry relative="1" as="geometry" />
        </mxCell>
        <mxCell id="R_5mfNXVNogWBlwIBrNZ-15" value="" style="shape=cube;whiteSpace=wrap;html=1;boundedLbl=1;backgroundOutline=1;darkOpacity=0.05;darkOpacity2=0.1;strokeColor=#b46504;fillColor=#fad7ac;size=40;" vertex="1" parent="1">
          <mxGeometry x="379" y="793" width="130" height="132" as="geometry" />
        </mxCell>
        <mxCell id="R_5mfNXVNogWBlwIBrNZ-17" value="C3 Block" style="text;html=1;strokeColor=none;fillColor=none;align=center;verticalAlign=middle;whiteSpace=wrap;rounded=0;fontStyle=1" vertex="1" parent="1">
          <mxGeometry x="1075.5" y="344" width="107" height="30" as="geometry" />
        </mxCell>
        <mxCell id="R_5mfNXVNogWBlwIBrNZ-18" value="ConvBNSILU" style="text;html=1;strokeColor=none;fillColor=none;align=center;verticalAlign=middle;whiteSpace=wrap;rounded=0;fontStyle=1" vertex="1" parent="1">
          <mxGeometry x="376" y="766" width="107" height="30" as="geometry" />
        </mxCell>
        <mxCell id="R_5mfNXVNogWBlwIBrNZ-22" value="" style="rounded=0;whiteSpace=wrap;html=1;fillColor=none;dashed=1;" vertex="1" parent="1">
          <mxGeometry x="360" y="1079" width="324" height="212" as="geometry" />
        </mxCell>
        <mxCell id="R_5mfNXVNogWBlwIBrNZ-24" value="4 x" style="text;html=1;strokeColor=none;fillColor=none;align=center;verticalAlign=middle;whiteSpace=wrap;rounded=0;fontStyle=1" vertex="1" parent="1">
          <mxGeometry x="721" y="348" width="107" height="30" as="geometry" />
        </mxCell>
        <mxCell id="R_5mfNXVNogWBlwIBrNZ-25" value="" style="shape=cube;whiteSpace=wrap;html=1;boundedLbl=1;backgroundOutline=1;darkOpacity=0.05;darkOpacity2=0.1;strokeColor=#b46504;fillColor=#fad7ac;size=30;" vertex="1" parent="1">
          <mxGeometry x="911" y="261.38" width="150" height="93.62" as="geometry" />
        </mxCell>
        <mxCell id="R_5mfNXVNogWBlwIBrNZ-30" value="SPPF" style="text;html=1;strokeColor=none;fillColor=none;align=center;verticalAlign=middle;whiteSpace=wrap;rounded=0;fontStyle=1" vertex="1" parent="1">
          <mxGeometry x="797" y="355" width="107" height="30" as="geometry" />
        </mxCell>
        <mxCell id="R_5mfNXVNogWBlwIBrNZ-31" value="" style="shape=cube;whiteSpace=wrap;html=1;boundedLbl=1;backgroundOutline=1;darkOpacity=0.05;darkOpacity2=0.1;strokeColor=#b46504;fillColor=#fad7ac;size=40;" vertex="1" parent="1">
          <mxGeometry x="1514" y="295" width="136" height="120" as="geometry" />
        </mxCell>
        <mxCell id="R_5mfNXVNogWBlwIBrNZ-32" value="C3 Block" style="text;html=1;strokeColor=none;fillColor=none;align=center;verticalAlign=middle;whiteSpace=wrap;rounded=0;fontStyle=1" vertex="1" parent="1">
          <mxGeometry x="1027" y="726" width="107" height="30" as="geometry" />
        </mxCell>
        <mxCell id="R_5mfNXVNogWBlwIBrNZ-33" value="" style="edgeStyle=orthogonalEdgeStyle;rounded=0;orthogonalLoop=1;jettySize=auto;html=1;" edge="1" parent="1" source="R_5mfNXVNogWBlwIBrNZ-34" target="R_5mfNXVNogWBlwIBrNZ-31">
          <mxGeometry relative="1" as="geometry" />
        </mxCell>
        <mxCell id="R_5mfNXVNogWBlwIBrNZ-34" value="" style="shape=cube;whiteSpace=wrap;html=1;boundedLbl=1;backgroundOutline=1;darkOpacity=0.05;darkOpacity2=0.1;strokeColor=#b46504;fillColor=#fad7ac;size=40;" vertex="1" parent="1">
          <mxGeometry x="1345" y="268" width="125" height="97" as="geometry" />
        </mxCell>
        <mxCell id="R_5mfNXVNogWBlwIBrNZ-35" value="ConvBNSILU" style="text;html=1;strokeColor=none;fillColor=none;align=center;verticalAlign=middle;whiteSpace=wrap;rounded=0;fontStyle=1" vertex="1" parent="1">
          <mxGeometry x="1176" y="348" width="107" height="30" as="geometry" />
        </mxCell>
        <mxCell id="R_5mfNXVNogWBlwIBrNZ-36" value="640" style="text;html=1;strokeColor=none;fillColor=none;align=center;verticalAlign=middle;whiteSpace=wrap;rounded=0;fontStyle=1" vertex="1" parent="1">
          <mxGeometry x="94" y="1000" width="40" height="30" as="geometry" />
        </mxCell>
        <mxCell id="R_5mfNXVNogWBlwIBrNZ-37" value="320" style="text;html=1;strokeColor=none;fillColor=none;align=center;verticalAlign=middle;whiteSpace=wrap;rounded=0;fontStyle=1" vertex="1" parent="1">
          <mxGeometry x="230" y="951" width="40" height="30" as="geometry" />
        </mxCell>
        <mxCell id="R_5mfNXVNogWBlwIBrNZ-38" value="160" style="text;html=1;strokeColor=none;fillColor=none;align=center;verticalAlign=middle;whiteSpace=wrap;rounded=0;fontStyle=1" vertex="1" parent="1">
          <mxGeometry x="367" y="895" width="40" height="30" as="geometry" />
        </mxCell>
        <mxCell id="R_5mfNXVNogWBlwIBrNZ-66" value="" style="edgeStyle=orthogonalEdgeStyle;rounded=0;orthogonalLoop=1;jettySize=auto;html=1;" edge="1" parent="1" source="R_5mfNXVNogWBlwIBrNZ-40" target="R_5mfNXVNogWBlwIBrNZ-64">
          <mxGeometry relative="1" as="geometry" />
        </mxCell>
        <mxCell id="R_5mfNXVNogWBlwIBrNZ-40" value="" style="shape=cube;whiteSpace=wrap;html=1;boundedLbl=1;backgroundOutline=1;darkOpacity=0.05;darkOpacity2=0.1;strokeColor=#b46504;fillColor=#fad7ac;size=50;" vertex="1" parent="1">
          <mxGeometry x="715" y="803" width="114" height="112" as="geometry" />
        </mxCell>
        <mxCell id="R_5mfNXVNogWBlwIBrNZ-42" value="ConvBNSILU" style="text;html=1;strokeColor=none;fillColor=none;align=center;verticalAlign=middle;whiteSpace=wrap;rounded=0;fontStyle=1" vertex="1" parent="1">
          <mxGeometry x="697" y="773" width="107" height="30" as="geometry" />
        </mxCell>
        <mxCell id="R_5mfNXVNogWBlwIBrNZ-47" value="C3 Block" style="text;html=1;strokeColor=none;fillColor=none;align=center;verticalAlign=middle;whiteSpace=wrap;rounded=0;fontStyle=1" vertex="1" parent="1">
          <mxGeometry x="1410" y="759" width="107" height="30" as="geometry" />
        </mxCell>
        <mxCell id="R_5mfNXVNogWBlwIBrNZ-57" value="C3 Block" style="text;html=1;strokeColor=none;fillColor=none;align=center;verticalAlign=middle;whiteSpace=wrap;rounded=0;fontStyle=1" vertex="1" parent="1">
          <mxGeometry x="837" y="773" width="107" height="30" as="geometry" />
        </mxCell>
        <mxCell id="R_5mfNXVNogWBlwIBrNZ-63" value="128" style="text;html=1;strokeColor=none;fillColor=none;align=center;verticalAlign=middle;whiteSpace=wrap;rounded=0;fontStyle=1" vertex="1" parent="1">
          <mxGeometry x="771" y="912" width="40" height="30" as="geometry" />
        </mxCell>
        <mxCell id="R_5mfNXVNogWBlwIBrNZ-71" style="edgeStyle=orthogonalEdgeStyle;rounded=0;orthogonalLoop=1;jettySize=auto;html=1;" edge="1" parent="1" source="R_5mfNXVNogWBlwIBrNZ-64" target="R_5mfNXVNogWBlwIBrNZ-68">
          <mxGeometry relative="1" as="geometry" />
        </mxCell>
        <mxCell id="R_5mfNXVNogWBlwIBrNZ-64" value="" style="shape=cube;whiteSpace=wrap;html=1;boundedLbl=1;backgroundOutline=1;darkOpacity=0.05;darkOpacity2=0.1;strokeColor=#6c8ebf;fillColor=#dae8fc;size=50;" vertex="1" parent="1">
          <mxGeometry x="857" y="803" width="114" height="112" as="geometry" />
        </mxCell>
        <mxCell id="R_5mfNXVNogWBlwIBrNZ-74" value="" style="edgeStyle=orthogonalEdgeStyle;rounded=0;orthogonalLoop=1;jettySize=auto;html=1;" edge="1" parent="1" source="R_5mfNXVNogWBlwIBrNZ-68" target="R_5mfNXVNogWBlwIBrNZ-73">
          <mxGeometry relative="1" as="geometry" />
        </mxCell>
        <mxCell id="R_5mfNXVNogWBlwIBrNZ-68" value="" style="shape=cube;whiteSpace=wrap;html=1;boundedLbl=1;backgroundOutline=1;darkOpacity=0.05;darkOpacity2=0.1;strokeColor=#b46504;fillColor=#fad7ac;size=70;" vertex="1" parent="1">
          <mxGeometry x="998" y="803" width="114" height="112" as="geometry" />
        </mxCell>
        <mxCell id="R_5mfNXVNogWBlwIBrNZ-72" value="ConvBNSILU" style="text;html=1;strokeColor=none;fillColor=none;align=center;verticalAlign=middle;whiteSpace=wrap;rounded=0;fontStyle=1" vertex="1" parent="1">
          <mxGeometry x="971" y="773" width="107" height="30" as="geometry" />
        </mxCell>
        <mxCell id="R_5mfNXVNogWBlwIBrNZ-77" value="" style="edgeStyle=orthogonalEdgeStyle;rounded=0;orthogonalLoop=1;jettySize=auto;html=1;" edge="1" parent="1" source="R_5mfNXVNogWBlwIBrNZ-73" target="R_5mfNXVNogWBlwIBrNZ-76">
          <mxGeometry relative="1" as="geometry" />
        </mxCell>
        <mxCell id="R_5mfNXVNogWBlwIBrNZ-73" value="" style="shape=cube;whiteSpace=wrap;html=1;boundedLbl=1;backgroundOutline=1;darkOpacity=0.05;darkOpacity2=0.1;strokeColor=#6c8ebf;fillColor=#dae8fc;size=70;" vertex="1" parent="1">
          <mxGeometry x="1140" y="803" width="114" height="112" as="geometry" />
        </mxCell>
        <mxCell id="R_5mfNXVNogWBlwIBrNZ-75" value="C3 Block" style="text;html=1;strokeColor=none;fillColor=none;align=center;verticalAlign=middle;whiteSpace=wrap;rounded=0;fontStyle=1" vertex="1" parent="1">
          <mxGeometry x="1109" y="773" width="107" height="30" as="geometry" />
        </mxCell>
        <mxCell id="R_5mfNXVNogWBlwIBrNZ-79" value="" style="edgeStyle=orthogonalEdgeStyle;rounded=0;orthogonalLoop=1;jettySize=auto;html=1;" edge="1" parent="1" source="R_5mfNXVNogWBlwIBrNZ-76" target="R_5mfNXVNogWBlwIBrNZ-78">
          <mxGeometry relative="1" as="geometry" />
        </mxCell>
        <mxCell id="R_5mfNXVNogWBlwIBrNZ-76" value="" style="shape=cube;whiteSpace=wrap;html=1;boundedLbl=1;backgroundOutline=1;darkOpacity=0.05;darkOpacity2=0.1;strokeColor=#b46504;fillColor=#fad7ac;size=113;" vertex="1" parent="1">
          <mxGeometry x="1279.5" y="789" width="139" height="140" as="geometry" />
        </mxCell>
        <mxCell id="R_5mfNXVNogWBlwIBrNZ-93" value="" style="edgeStyle=orthogonalEdgeStyle;rounded=0;orthogonalLoop=1;jettySize=auto;html=1;" edge="1" parent="1" source="R_5mfNXVNogWBlwIBrNZ-78" target="R_5mfNXVNogWBlwIBrNZ-91">
          <mxGeometry relative="1" as="geometry" />
        </mxCell>
        <mxCell id="R_5mfNXVNogWBlwIBrNZ-78" value="" style="shape=cube;whiteSpace=wrap;html=1;boundedLbl=1;backgroundOutline=1;darkOpacity=0.05;darkOpacity2=0.1;strokeColor=#6c8ebf;fillColor=#dae8fc;size=113;" vertex="1" parent="1">
          <mxGeometry x="1448" y="789" width="139" height="140" as="geometry" />
        </mxCell>
        <mxCell id="R_5mfNXVNogWBlwIBrNZ-80" value="ConvBNSILU" style="text;html=1;strokeColor=none;fillColor=none;align=center;verticalAlign=middle;whiteSpace=wrap;rounded=0;fontStyle=1" vertex="1" parent="1">
          <mxGeometry x="1237" y="761" width="107" height="30" as="geometry" />
        </mxCell>
        <mxCell id="R_5mfNXVNogWBlwIBrNZ-83" value="40" style="text;html=1;strokeColor=none;fillColor=none;align=center;verticalAlign=middle;whiteSpace=wrap;rounded=0;fontStyle=1" vertex="1" parent="1">
          <mxGeometry x="1072" y="915" width="40" height="30" as="geometry" />
        </mxCell>
        <mxCell id="R_5mfNXVNogWBlwIBrNZ-84" value="" style="shape=cube;whiteSpace=wrap;html=1;boundedLbl=1;backgroundOutline=1;darkOpacity=0.05;darkOpacity2=0.1;strokeColor=#6c8ebf;fillColor=#dae8fc;size=40;" vertex="1" parent="1">
          <mxGeometry x="538" y="794" width="130" height="130" as="geometry" />
        </mxCell>
        <mxCell id="R_5mfNXVNogWBlwIBrNZ-86" value="40" style="text;html=1;strokeColor=none;fillColor=none;align=center;verticalAlign=middle;whiteSpace=wrap;rounded=0;fontStyle=1" vertex="1" parent="1">
          <mxGeometry x="1216" y="915" width="40" height="30" as="geometry" />
        </mxCell>
        <mxCell id="R_5mfNXVNogWBlwIBrNZ-87" value="20" style="text;html=1;strokeColor=none;fillColor=none;align=center;verticalAlign=middle;whiteSpace=wrap;rounded=0;fontStyle=1" vertex="1" parent="1">
          <mxGeometry x="1387" y="929" width="40" height="30" as="geometry" />
        </mxCell>
        <mxCell id="R_5mfNXVNogWBlwIBrNZ-88" value="20" style="text;html=1;strokeColor=none;fillColor=none;align=center;verticalAlign=middle;whiteSpace=wrap;rounded=0;fontStyle=1" vertex="1" parent="1">
          <mxGeometry x="1558" y="929" width="40" height="30" as="geometry" />
        </mxCell>
        <mxCell id="R_5mfNXVNogWBlwIBrNZ-96" value="" style="edgeStyle=orthogonalEdgeStyle;rounded=0;orthogonalLoop=1;jettySize=auto;html=1;" edge="1" parent="1" source="R_5mfNXVNogWBlwIBrNZ-91" target="R_5mfNXVNogWBlwIBrNZ-95">
          <mxGeometry relative="1" as="geometry" />
        </mxCell>
        <mxCell id="R_5mfNXVNogWBlwIBrNZ-91" value="" style="shape=cube;whiteSpace=wrap;html=1;boundedLbl=1;backgroundOutline=1;darkOpacity=0.05;darkOpacity2=0.1;strokeColor=#ae4132;fillColor=#fad9d5;size=113;" vertex="1" parent="1">
          <mxGeometry x="1618" y="789" width="140" height="140" as="geometry" />
        </mxCell>
        <mxCell id="R_5mfNXVNogWBlwIBrNZ-94" value="SPPF" style="text;html=1;strokeColor=none;fillColor=none;align=center;verticalAlign=middle;whiteSpace=wrap;rounded=0;fontStyle=1" vertex="1" parent="1">
          <mxGeometry x="1574" y="759" width="107" height="30" as="geometry" />
        </mxCell>
        <mxCell id="R_5mfNXVNogWBlwIBrNZ-95" value="" style="shape=cube;whiteSpace=wrap;html=1;boundedLbl=1;backgroundOutline=1;darkOpacity=0.05;darkOpacity2=0.1;strokeColor=#b46504;fillColor=#fad7ac;size=69;" vertex="1" parent="1">
          <mxGeometry x="1642.5" y="976" width="91" height="91" as="geometry" />
        </mxCell>
        <mxCell id="R_5mfNXVNogWBlwIBrNZ-98" value="20" style="text;html=1;strokeColor=none;fillColor=none;align=center;verticalAlign=middle;whiteSpace=wrap;rounded=0;fontStyle=1" vertex="1" parent="1">
          <mxGeometry x="1724" y="929" width="40" height="30" as="geometry" />
        </mxCell>
        <mxCell id="R_5mfNXVNogWBlwIBrNZ-99" value="640" style="text;html=1;strokeColor=none;fillColor=none;align=center;verticalAlign=middle;whiteSpace=wrap;rounded=0;fontStyle=1" vertex="1" parent="1">
          <mxGeometry x="45" y="799" width="40" height="30" as="geometry" />
        </mxCell>
        <mxCell id="R_5mfNXVNogWBlwIBrNZ-100" value="3" style="text;html=1;strokeColor=none;fillColor=none;align=center;verticalAlign=middle;whiteSpace=wrap;rounded=0;fontStyle=1" vertex="1" parent="1">
          <mxGeometry x="172" y="1059" width="40" height="30" as="geometry" />
        </mxCell>
        <mxCell id="R_5mfNXVNogWBlwIBrNZ-101" value="320" style="text;html=1;strokeColor=none;fillColor=none;align=center;verticalAlign=middle;whiteSpace=wrap;rounded=0;fontStyle=1" vertex="1" parent="1">
          <mxGeometry x="205" y="816" width="40" height="30" as="geometry" />
        </mxCell>
        <mxCell id="R_5mfNXVNogWBlwIBrNZ-102" value="32" style="text;html=1;strokeColor=none;fillColor=none;align=center;verticalAlign=middle;whiteSpace=wrap;rounded=0;fontStyle=1" vertex="1" parent="1">
          <mxGeometry x="290" y="979" width="40" height="30" as="geometry" />
        </mxCell>
        <mxCell id="R_5mfNXVNogWBlwIBrNZ-103" value="160" style="text;html=1;strokeColor=none;fillColor=none;align=center;verticalAlign=middle;whiteSpace=wrap;rounded=0;fontStyle=1" vertex="1" parent="1">
          <mxGeometry x="349" y="806" width="40" height="30" as="geometry" />
        </mxCell>
        <mxCell id="R_5mfNXVNogWBlwIBrNZ-104" value="64" style="text;html=1;strokeColor=none;fillColor=none;align=center;verticalAlign=middle;whiteSpace=wrap;rounded=0;fontStyle=1" vertex="1" parent="1">
          <mxGeometry x="445" y="925" width="40" height="30" as="geometry" />
        </mxCell>
        <mxCell id="R_5mfNXVNogWBlwIBrNZ-105" value="64" style="text;html=1;strokeColor=none;fillColor=none;align=center;verticalAlign=middle;whiteSpace=wrap;rounded=0;fontStyle=1" vertex="1" parent="1">
          <mxGeometry x="603" y="925" width="40" height="30" as="geometry" />
        </mxCell>
        <mxCell id="R_5mfNXVNogWBlwIBrNZ-106" value="160" style="text;html=1;strokeColor=none;fillColor=none;align=center;verticalAlign=middle;whiteSpace=wrap;rounded=0;fontStyle=1" vertex="1" parent="1">
          <mxGeometry x="527" y="895" width="40" height="30" as="geometry" />
        </mxCell>
        <mxCell id="R_5mfNXVNogWBlwIBrNZ-107" value="160" style="text;html=1;strokeColor=none;fillColor=none;align=center;verticalAlign=middle;whiteSpace=wrap;rounded=0;fontStyle=1" vertex="1" parent="1">
          <mxGeometry x="507" y="803" width="40" height="30" as="geometry" />
        </mxCell>
        <mxCell id="R_5mfNXVNogWBlwIBrNZ-108" value="80" style="text;html=1;strokeColor=none;fillColor=none;align=center;verticalAlign=middle;whiteSpace=wrap;rounded=0;fontStyle=1" vertex="1" parent="1">
          <mxGeometry x="706" y="882" width="40" height="30" as="geometry" />
        </mxCell>
        <mxCell id="R_5mfNXVNogWBlwIBrNZ-109" value="80" style="text;html=1;strokeColor=none;fillColor=none;align=center;verticalAlign=middle;whiteSpace=wrap;rounded=0;fontStyle=1" vertex="1" parent="1">
          <mxGeometry x="687" y="806" width="40" height="30" as="geometry" />
        </mxCell>
        <mxCell id="R_5mfNXVNogWBlwIBrNZ-110" value="128" style="text;html=1;strokeColor=none;fillColor=none;align=center;verticalAlign=middle;whiteSpace=wrap;rounded=0;fontStyle=1" vertex="1" parent="1">
          <mxGeometry x="918" y="915" width="40" height="30" as="geometry" />
        </mxCell>
      </root>
    </mxGraphModel>
  </diagram>
</mxfile>
